<svg id="instagram" xmlns="http://www.w3.org/2000/svg" width="30" height="30" viewBox="0 0 30 30">
  <circle id="Oval_Copy_18" data-name="Oval Copy 18" cx="15" cy="15" r="15" fill="#29e7b5"/>
  <g id="Groupe_8626" data-name="Groupe 8626" transform="translate(6.836 7.032)">
    <path id="Tracé_28099" data-name="Tracé 28099" d="M12.312,5.562c2.2,0,2.459.008,3.327.048a4.557,4.557,0,0,1,1.529.283A2.727,2.727,0,0,1,18.73,7.456a4.557,4.557,0,0,1,.283,1.529c.04.868.048,1.129.048,3.327s-.008,2.459-.048,3.327a4.557,4.557,0,0,1-.283,1.529,2.727,2.727,0,0,1-1.563,1.563,4.557,4.557,0,0,1-1.529.283c-.868.04-1.128.048-3.327.048s-2.459-.008-3.327-.048a4.557,4.557,0,0,1-1.529-.283,2.727,2.727,0,0,1-1.563-1.563,4.557,4.557,0,0,1-.283-1.529c-.04-.868-.048-1.129-.048-3.327s.008-2.459.048-3.327a4.557,4.557,0,0,1,.283-1.529A2.727,2.727,0,0,1,7.456,5.894,4.557,4.557,0,0,1,8.985,5.61c.868-.04,1.129-.048,3.327-.048m0-1.483c-2.236,0-2.516.009-3.395.05a6.043,6.043,0,0,0-2,.383A4.21,4.21,0,0,0,4.511,6.919a6.043,6.043,0,0,0-.383,2c-.04.878-.05,1.158-.05,3.395s.009,2.516.05,3.395a6.043,6.043,0,0,0,.383,2,4.21,4.21,0,0,0,2.408,2.408,6.043,6.043,0,0,0,2,.383c.878.04,1.158.05,3.395.05s2.516-.009,3.395-.05a6.043,6.043,0,0,0,2-.383,4.21,4.21,0,0,0,2.408-2.408,6.043,6.043,0,0,0,.383-2c.04-.878.05-1.158.05-3.395S20.536,9.8,20.5,8.918a6.043,6.043,0,0,0-.383-2,4.21,4.21,0,0,0-2.408-2.408,6.043,6.043,0,0,0-2-.383c-.878-.04-1.158-.05-3.395-.05Z" transform="translate(-4.079 -4.079)" fill="#fff"/>
    <path id="Tracé_28100" data-name="Tracé 28100" d="M130.863,126.635a4.228,4.228,0,1,0,4.228,4.228A4.228,4.228,0,0,0,130.863,126.635Zm0,6.972a2.744,2.744,0,1,1,2.744-2.744A2.744,2.744,0,0,1,130.863,133.607Z" transform="translate(-122.63 -122.63)" fill="#fff"/>
    <circle id="Ellipse_641" data-name="Ellipse 641" cx="0.988" cy="0.988" r="0.988" transform="translate(11.64 2.85)" fill="#fff"/>
  </g>
</svg>
