<svg xmlns="http://www.w3.org/2000/svg" xmlns:xlink="http://www.w3.org/1999/xlink" width="133.883" height="25.931" viewBox="0 0 133.883 25.931">
  <defs>
    <linearGradient id="linear-gradient" y1="0.5" x2="1" y2="0.5" gradientUnits="objectBoundingBox">
      <stop offset="0.003" stop-color="#06ccaa"/>
      <stop offset="0.999" stop-color="#5cffd4"/>
    </linearGradient>
  </defs>
  <g id="logo" transform="translate(0 0)">
    <g id="Groupe_8625" data-name="Groupe 8625" transform="translate(-1377 -503.959)">
      <g id="Groupe_8624" data-name="Groupe 8624" transform="translate(1410.874 503.959)">
        <path id="Tracé_28092" data-name="Tracé 28092" d="M1520.743,537.594c0,2.841,2.073,4.012,5.118,4.816l1.505.4c1.805.468,3.077,1.071,3.077,2.176s-1.136,1.805-2.81,1.805a9.871,9.871,0,0,1-5.185-1.338l-1.706,2.744a10.232,10.232,0,0,0,6.713,2.141h.218c4.457-.036,7.421-2.3,7.421-5.689,0-3.177-2.443-4.583-5.521-5.387l-1.505-.433c-1.571-.4-2.709-.9-2.709-1.975,0-1.036,1.138-1.639,2.776-1.639a9.254,9.254,0,0,1,4.584,1.171l1.906-2.979a11.947,11.947,0,0,0-6.791-1.771c-4.283,0-7.092,2.374-7.092,5.956" transform="translate(-1520.743 -525.115)" fill="#1b3145"/>
        <g id="Groupe_8618" data-name="Groupe 8618" transform="translate(17.786 1.572)">
          <path id="Tracé_28093" data-name="Tracé 28093" d="M1596.219,510.631h0v17.963a5.319,5.319,0,0,0,5.476,5.689h.187a12.093,12.093,0,0,0,4.475-.838v-3.679a7.957,7.957,0,0,1-3.111.6,2.456,2.456,0,0,1-2.475-2.709v-8.031h5.319v-3.714h-5.319v-5.283Z" transform="translate(-1596.219 -510.631)" fill="#1b3145"/>
        </g>
        <g id="Groupe_8619" data-name="Groupe 8619" transform="translate(29.702 6.523)">
          <path id="Tracé_28094" data-name="Tracé 28094" d="M1655.781,535.217c2.442,0,3.882,1.573,4.216,4.317h-8.4c.369-2.744,1.774-4.317,4.182-4.317m-9,5.886c0,5.521,3.638,9.193,9.1,9.236h.192a9.237,9.237,0,0,0,7.768-3.95l-3.514-1.774a5.593,5.593,0,0,1-4.417,2.141c-2.642,0-3.981-1.6-4.315-4.147h13.047a16.421,16.421,0,0,0,.133-1.905c0-5.453-3.612-9.067-9-9.067-5.419,0-9,3.781-9,9.465" transform="translate(-1646.782 -531.638)" fill="#1b3145"/>
        </g>
        <g id="Groupe_8620" data-name="Groupe 8620" transform="translate(51.134)">
          <path id="Tracé_28095" data-name="Tracé 28095" d="M1737.73,503.96h0v24.888h4.55V503.96Z" transform="translate(-1737.73 -503.959)" fill="#1b3145"/>
        </g>
        <g id="Groupe_8621" data-name="Groupe 8621" transform="translate(60.111)">
          <rect id="Rectangle_1659" data-name="Rectangle 1659" width="4.549" height="24.888" fill="#1b3145"/>
        </g>
        <g id="Groupe_8622" data-name="Groupe 8622" transform="translate(68.557 6.523)">
          <path id="Tracé_28096" data-name="Tracé 28096" d="M1816.413,544.651c0-1.538,1.372-2.543,3.513-2.543a18.17,18.17,0,0,1,3.412.368c-.033,2.945-2.008,4.619-4.114,4.619-1.84,0-2.811-.97-2.811-2.443m-3.613-10.67,1.974,2.674a6.38,6.38,0,0,1,4.214-1.438c2.744,0,4.35,1.438,4.35,3.846v.335a21.188,21.188,0,0,0-3.98-.4c-4.617,0-7.7,2.276-7.7,5.755,0,3.32,2.471,5.553,6.167,5.588h.161a6.449,6.449,0,0,0,5.417-2.913l.1,2.577h4.383V538.665c0-4.251-3.112-7.027-7.73-7.027a10.975,10.975,0,0,0-7.359,2.342" transform="translate(-1811.662 -531.638)" fill="#1b3145"/>
        </g>
        <g id="Groupe_8623" data-name="Groupe 8623" transform="translate(88.937 6.523)">
          <path id="Tracé_28097" data-name="Tracé 28097" d="M1902.593,534.382l-.068-2.411h-4.381V550h4.549v-9.669c0-2.71,2.476-4.514,6.222-4.514l.3-4.181h0a8.162,8.162,0,0,0-6.624,2.744" transform="translate(-1898.144 -531.638)" fill="#1b3145"/>
        </g>
      </g>
      <path id="Tracé_28098" data-name="Tracé 28098" d="M1405.236,521.366l-6.872-11.575a.707.707,0,0,0-.608-.346H1384.39a.706.706,0,0,0-.612.354l-6.683,11.575a.707.707,0,0,0,0,.7l6.64,11.649a.707.707,0,0,0,.614.357h13.41a.706.706,0,0,0,.609-.348l6.87-11.649A.707.707,0,0,0,1405.236,521.366Zm-1.63.025-9.14,5.4-2.95-5.135,5.989-10.54ZM1385.635,532l5.34-9.4,2.679,4.663Zm8.489-3.919,2.633,4.584h-10.395Zm-3.153-7.381-5.656-9.846h11.251Zm-6.459-9.351,5.684,9.894-11.4.007Zm-5.723,10.844,11.338-.007-5.662,9.965Zm18.813,10.05-2.667-4.642,8.293-4.9Z" transform="translate(0 -4.192)" fill="url(#linear-gradient)"/>
    </g>
  </g>
</svg>
