<svg xmlns="http://www.w3.org/2000/svg" viewBox="0 0 18 14.7"><title>Asset 1</title><g id="Layer_2" data-name="Layer 2"><g id="Layer_1-2" data-name="Layer 1"><path fill="#161616" d="M7.05,13.69a4.06,4.06,0,0,1-5.85-.53c-1.58-2-1.89-5.86.86-9.29A13.37,13.37,0,0,1,7,0l.89,1.49C5.14,2.86,3.09,4.73,2.8,7.87A9.19,9.19,0,0,1,6,8.16,3.05,3.05,0,0,1,7.9,10.09a3.34,3.34,0,0,1-.85,3.6Zm9.91,0a4.05,4.05,0,0,1-5.85-.53c-1.58-2-1.9-5.86.85-9.29A13.4,13.4,0,0,1,16.89,0l.88,1.49C15,2.86,13,4.73,12.71,7.87a9.21,9.21,0,0,1,3.17.29,3.06,3.06,0,0,1,1.92,1.93,3.35,3.35,0,0,1-.84,3.6Z"/></g></g></svg>
