<svg xmlns="http://www.w3.org/2000/svg" xmlns:xlink="http://www.w3.org/1999/xlink" width="30" height="31" viewBox="0 0 30 31">
  <defs>
    <clipPath id="clip-path">
      <path id="twitter" d="M14.617,3.392c.01.149.01.3.01.447,0,4.54-3.36,9.771-9.5,9.771A9.246,9.246,0,0,1,0,12.068a6.717,6.717,0,0,0,.806.043,6.57,6.57,0,0,0,4.145-1.467A3.358,3.358,0,0,1,1.83,8.261a4.1,4.1,0,0,0,.631.053A3.439,3.439,0,0,0,3.339,8.2,3.412,3.412,0,0,1,.662,4.827V4.785a3.292,3.292,0,0,0,1.509.436A3.458,3.458,0,0,1,.682,2.36,3.483,3.483,0,0,1,1.137.627,9.406,9.406,0,0,0,8.022,4.221a3.983,3.983,0,0,1-.083-.787A3.386,3.386,0,0,1,11.278,0a3.288,3.288,0,0,1,2.44,1.085A6.464,6.464,0,0,0,15.837.255a3.409,3.409,0,0,1-1.468,1.893,6.548,6.548,0,0,0,1.923-.532A7.293,7.293,0,0,1,14.617,3.392Z" transform="translate(0 0)" fill="#fff"/>
    </clipPath>
  </defs>
  <g id="twitter-2" data-name="twitter" transform="translate(-0.139)">
    <ellipse id="Oval_Copy_8" data-name="Oval Copy 8" cx="15" cy="15.5" rx="15" ry="15.5" transform="translate(0.139)" fill="#29e7b5"/>
    <g id="Icons_Brands_twitter" data-name="Icons/Brands/twitter" transform="translate(7.331 9.114)">
      <path id="twitter-3" data-name="twitter" d="M14.617,3.392c.01.149.01.3.01.447,0,4.54-3.36,9.771-9.5,9.771A9.246,9.246,0,0,1,0,12.068a6.717,6.717,0,0,0,.806.043,6.57,6.57,0,0,0,4.145-1.467A3.358,3.358,0,0,1,1.83,8.261a4.1,4.1,0,0,0,.631.053A3.439,3.439,0,0,0,3.339,8.2,3.412,3.412,0,0,1,.662,4.827V4.785a3.292,3.292,0,0,0,1.509.436A3.458,3.458,0,0,1,.682,2.36,3.483,3.483,0,0,1,1.137.627,9.406,9.406,0,0,0,8.022,4.221a3.983,3.983,0,0,1-.083-.787A3.386,3.386,0,0,1,11.278,0a3.288,3.288,0,0,1,2.44,1.085A6.464,6.464,0,0,0,15.837.255a3.409,3.409,0,0,1-1.468,1.893,6.548,6.548,0,0,0,1.923-.532A7.293,7.293,0,0,1,14.617,3.392Z" transform="translate(0 0)" fill="#fff"/>
    </g>
  </g>
</svg>
